<svg width="24" height="25" viewBox="0 0 24 25" fill="none" xmlns="http://www.w3.org/2000/svg">
<mask id="mask0_34_59" style="mask-type:alpha" maskUnits="userSpaceOnUse" x="0" y="0" width="24" height="25">
<rect y="0.60498" width="24" height="24" fill="#D9D9D9"/>
</mask>
<g mask="url(#mask0_34_59)">
<path d="M7.25 17.355H13.75V15.855H7.25V17.355ZM7.25 13.355H16.75V11.855H7.25V13.355ZM7.25 9.35498H16.75V7.85498L7.25 7.85498V9.35498ZM5.30775 21.105C4.80258 21.105 4.375 20.93 4.025 20.58C3.675 20.23 3.5 19.8024 3.5 19.2972L3.5 5.91273C3.5 5.40756 3.675 4.97998 4.025 4.62998C4.375 4.27998 4.80258 4.10498 5.30775 4.10498L18.6923 4.10498C19.1974 4.10498 19.625 4.27998 19.975 4.62998C20.325 4.97998 20.5 5.40756 20.5 5.91273V19.2972C20.5 19.8024 20.325 20.23 19.975 20.58C19.625 20.93 19.1974 21.105 18.6923 21.105H5.30775ZM5.30775 19.605H18.6923C18.7692 19.605 18.8398 19.5729 18.9038 19.5087C18.9679 19.4447 19 19.3742 19 19.2972V5.91273C19 5.83573 18.9679 5.76523 18.9038 5.70123C18.8398 5.63706 18.7692 5.60498 18.6923 5.60498L5.30775 5.60498C5.23075 5.60498 5.16025 5.63706 5.09625 5.70123C5.03208 5.76523 5 5.83573 5 5.91273L5 19.2972C5 19.3742 5.03208 19.4447 5.09625 19.5087C5.16025 19.5729 5.23075 19.605 5.30775 19.605Z" fill="#C88566"/>
</g>
</svg>
