<svg width="30" height="31" viewBox="0 0 30 31" fill="none" xmlns="http://www.w3.org/2000/svg">
<mask id="mask0_20_170" style="mask-type:alpha" maskUnits="userSpaceOnUse" x="0" y="0" width="30" height="31">
<rect y="0.651245" width="30" height="30" fill="#D9D9D9"/>
</mask>
<g mask="url(#mask0_20_170)">
<path d="M15 28.6319L6.52875 22.2787C6.24833 22.0735 6.0276 21.8099 5.86656 21.4878C5.70552 21.1657 5.625 20.8268 5.625 20.4709L5.625 6.03593C5.625 5.40447 5.84375 4.87 6.28125 4.4325C6.71875 3.995 7.25323 3.77625 7.88469 3.77625L22.1153 3.77625C22.7468 3.77625 23.2812 3.995 23.7188 4.4325C24.1562 4.87 24.375 5.40447 24.375 6.03593V20.4709C24.375 20.8268 24.2945 21.1657 24.1334 21.4878C23.9724 21.8099 23.7517 22.0735 23.4713 22.2787L15 28.6319ZM15 26.2762L22.3438 20.7716C22.3919 20.7313 22.4299 20.6852 22.4578 20.6331C22.4859 20.581 22.5 20.523 22.5 20.4591V6.03593C22.5 5.93968 22.4599 5.85156 22.3797 5.77156C22.2997 5.69135 22.2116 5.65125 22.1153 5.65125L7.88469 5.65125C7.78844 5.65125 7.70031 5.69135 7.62031 5.77156C7.5401 5.85156 7.5 5.93968 7.5 6.03593L7.5 20.4591C7.5 20.523 7.51406 20.581 7.54219 20.6331C7.5701 20.6852 7.60812 20.7313 7.65625 20.7716L15 26.2762ZM13.6875 18.9684L20.3172 12.3387L19 10.9831L13.6875 16.2956L11.0384 13.6466L9.68281 14.9637L13.6875 18.9684Z" fill="#C88566"/>
</g>
</svg>
