<svg width="74" height="102" viewBox="0 0 74 102" fill="none" xmlns="http://www.w3.org/2000/svg">
<g opacity="0.2">
<mask id="path-1-outside-1_9_133" maskUnits="userSpaceOnUse" x="0" y="-0.39502" width="74" height="102" fill="black">
<rect fill="white" y="-0.39502" width="74" height="102"/>
<path d="M71.0518 65.5249C71.0518 70.2124 70.0996 74.6069 68.1953 78.7085C66.291 82.8101 63.7031 86.3989 60.4316 89.4751C57.209 92.5024 53.4736 94.895 49.2256 96.6528C44.9775 98.4106 40.5098 99.2896 35.8223 99.2896C31.2324 99.2896 26.9844 98.606 23.0781 97.2388C19.1719 95.8716 15.7295 93.9185 12.751 91.3794C9.82129 88.8403 7.45312 85.7153 5.64648 82.0044C3.83984 78.2935 2.74121 74.0454 2.35059 69.2603L16.7793 67.1362C17.2676 72.6538 19.0498 77.1216 22.126 80.5396C25.251 83.9087 29.8164 85.5933 35.8223 85.5933C38.8984 85.5933 41.6328 85.0806 44.0254 84.0552C46.4668 82.981 48.5176 81.5405 50.1777 79.7339C51.8867 77.9272 53.1807 75.8032 54.0596 73.3618C54.9873 70.9204 55.4512 68.3081 55.4512 65.5249C55.4512 59.1284 53.791 54.1479 50.4707 50.5835C47.1992 47.019 42.8535 45.2368 37.4336 45.2368C33.9668 45.2368 30.7441 45.9692 27.7656 47.4341C24.8359 48.8989 22.5166 51.2671 20.8076 54.5386H5.64648V2.02393H65.4854V15.7202H20.8076V40.4761C25.2998 34.5679 31.8428 31.6138 40.4365 31.6138C44.5381 31.6138 48.4443 32.4194 52.1553 34.0308C55.8662 35.5933 59.1133 37.8394 61.8965 40.769C64.6797 43.6499 66.9014 47.1899 68.5615 51.3892C70.2217 55.5884 71.0518 60.3003 71.0518 65.5249Z"/>
</mask>
<path d="M60.4316 89.4751L61.801 90.9328L61.8017 90.9321L60.4316 89.4751ZM12.751 91.3794L11.4411 92.8908L11.4473 92.8961L11.4535 92.9014L12.751 91.3794ZM2.35059 69.2603L2.05931 67.2816L0.204695 67.5546L0.357217 69.423L2.35059 69.2603ZM16.7793 67.1362L18.7715 66.9599L18.5847 64.8489L16.488 65.1576L16.7793 67.1362ZM22.126 80.5396L20.6394 81.8775L20.6494 81.8886L20.6596 81.8996L22.126 80.5396ZM44.0254 84.0552L44.8132 85.8935L44.8221 85.8897L44.8309 85.8858L44.0254 84.0552ZM50.1777 79.7339L48.7248 78.3595L48.7149 78.37L48.7051 78.3806L50.1777 79.7339ZM54.0596 73.3618L52.19 72.6514L52.1838 72.6678L52.1778 72.6844L54.0596 73.3618ZM50.4707 50.5835L48.9972 51.9359L49.0022 51.9413L49.0073 51.9467L50.4707 50.5835ZM27.7656 47.4341L26.883 45.6393L26.8712 45.6452L27.7656 47.4341ZM20.8076 54.5386V56.5386H22.0193L22.5803 55.4646L20.8076 54.5386ZM5.64648 54.5386H3.64648V56.5386H5.64648V54.5386ZM5.64648 2.02393V0.0239258H3.64648V2.02393H5.64648ZM65.4854 2.02393H67.4854V0.0239258H65.4854V2.02393ZM65.4854 15.7202V17.7202H67.4854V15.7202H65.4854ZM20.8076 15.7202V13.7202H18.8076V15.7202H20.8076ZM20.8076 40.4761H18.8076V46.4109L22.3997 41.6866L20.8076 40.4761ZM52.1553 34.0308L51.3587 35.8653L51.3689 35.8697L51.3792 35.874L52.1553 34.0308ZM61.8965 40.769L60.4465 42.1465L60.4523 42.1526L60.4581 42.1587L61.8965 40.769ZM69.0518 65.5249C69.0518 69.9324 68.1586 74.0383 66.3813 77.8663L70.0093 79.5507C72.0407 75.1755 73.0518 70.4924 73.0518 65.5249H69.0518ZM66.3813 77.8663C64.5836 81.7381 62.1459 85.1179 59.0616 88.0181L61.8017 90.9321C65.2604 87.68 67.9984 83.882 70.0093 79.5507L66.3813 77.8663ZM59.0623 88.0174C56.0229 90.8726 52.4945 93.1357 48.4609 94.8048L49.9903 98.5009C54.4528 96.6543 58.3951 94.1323 61.801 90.9328L59.0623 88.0174ZM48.4609 94.8048C44.4601 96.4603 40.2526 97.2896 35.8223 97.2896V101.29C40.7669 101.29 45.495 100.361 49.9903 98.5009L48.4609 94.8048ZM35.8223 97.2896C31.433 97.2896 27.4109 96.6363 23.7388 95.3511L22.4174 99.1265C26.5579 100.576 31.0318 101.29 35.8223 101.29V97.2896ZM23.7388 95.3511C20.0521 94.0607 16.8285 92.2272 14.0484 89.8574L11.4535 92.9014C14.6305 95.6097 18.2917 97.6825 22.4174 99.1265L23.7388 95.3511ZM14.0608 89.868C11.3482 87.517 9.1409 84.613 7.4447 81.1289L3.84827 82.8798C5.76535 86.8176 8.29442 90.1636 11.4411 92.8908L14.0608 89.868ZM7.4447 81.1289C5.76303 77.6747 4.71761 73.6749 4.34396 69.0975L0.357217 69.423C0.764807 74.416 1.91666 78.9122 3.84827 82.8798L7.4447 81.1289ZM2.64186 71.2389L17.0706 69.1149L16.488 65.1576L2.05931 67.2816L2.64186 71.2389ZM14.7871 67.3125C15.3055 73.1711 17.2177 78.0756 20.6394 81.8775L23.6126 79.2016C20.8819 76.1676 19.2296 72.1365 18.7715 66.9599L14.7871 67.3125ZM20.6596 81.8996C24.2702 85.7922 29.4398 87.5933 35.8223 87.5933V83.5933C30.1931 83.5933 26.2318 82.0251 23.5923 79.1795L20.6596 81.8996ZM35.8223 87.5933C39.1208 87.5933 42.1307 87.0431 44.8132 85.8935L43.2376 82.2169C41.1349 83.118 38.6761 83.5933 35.8223 83.5933V87.5933ZM44.8309 85.8858C47.503 84.7101 49.7874 83.1145 51.6504 81.0871L48.7051 78.3806C47.2477 79.9666 45.4306 81.2518 43.2199 82.2245L44.8309 85.8858ZM51.6307 81.1083C53.5373 79.0927 54.9732 76.7286 55.9413 74.0393L52.1778 72.6844C51.3881 74.8779 50.2361 76.7618 48.7248 78.3595L51.6307 81.1083ZM55.9291 74.0723C56.9486 71.3894 57.4512 68.5348 57.4512 65.5249H53.4512C53.4512 68.0814 53.026 70.4515 52.19 72.6514L55.9291 74.0723ZM57.4512 65.5249C57.4512 58.7853 55.6962 53.2589 51.9341 49.2203L49.0073 51.9467C51.8859 55.037 53.4512 59.4716 53.4512 65.5249H57.4512ZM51.9442 49.2311C48.2462 45.202 43.3391 43.2368 37.4336 43.2368V47.2368C42.368 47.2368 46.1522 48.8361 48.9972 51.9359L51.9442 49.2311ZM37.4336 43.2368C33.6747 43.2368 30.1484 44.0334 26.883 45.6394L28.6483 49.2288C31.3399 47.905 34.2588 47.2368 37.4336 47.2368V43.2368ZM26.8712 45.6452C23.5184 47.3216 20.9129 50.0176 19.0349 53.6125L22.5803 55.4646C24.1203 52.5166 26.1535 50.4762 28.6601 49.2229L26.8712 45.6452ZM20.8076 52.5386H5.64648V56.5386H20.8076V52.5386ZM7.64648 54.5386V2.02393H3.64648V54.5386H7.64648ZM5.64648 4.02393H65.4854V0.0239258H5.64648V4.02393ZM63.4854 2.02393V15.7202H67.4854V2.02393H63.4854ZM65.4854 13.7202H20.8076V17.7202H65.4854V13.7202ZM18.8076 15.7202V40.4761H22.8076V15.7202H18.8076ZM22.3997 41.6866C26.4507 36.3586 32.3558 33.6138 40.4365 33.6138V29.6138C31.3298 29.6138 24.1489 32.7772 19.2155 39.2656L22.3997 41.6866ZM40.4365 33.6138C44.2679 33.6138 47.9027 34.3647 51.3587 35.8653L52.9518 32.1962C48.986 30.4742 44.8082 29.6138 40.4365 29.6138V33.6138ZM51.3792 35.874C54.8348 37.329 57.8527 39.4162 60.4465 42.1465L63.3465 39.3915C60.3739 36.2625 56.8976 33.8575 52.9314 32.1875L51.3792 35.874ZM60.4581 42.1587C63.0376 44.8286 65.1255 48.138 66.7016 52.1245L70.4214 50.6538C68.6772 46.2419 66.3218 42.4712 63.3349 39.3794L60.4581 42.1587ZM66.7016 52.1245C68.2559 56.0559 69.0518 60.513 69.0518 65.5249H73.0518C73.0518 60.0876 72.1875 55.1209 70.4214 50.6538L66.7016 52.1245Z" fill="#C88566" mask="url(#path-1-outside-1_9_133)"/>
</g>
</svg>
