<svg width="73" height="100" viewBox="0 0 73 100" fill="none" xmlns="http://www.w3.org/2000/svg">
<g opacity="0.2">
<mask id="path-1-outside-1_9_129" maskUnits="userSpaceOnUse" x="0" y="-0.39502" width="73" height="100" fill="black">
<rect fill="white" y="-0.39502" width="73" height="100"/>
<path d="M70.3193 97.605H24.3965V83.9819H39.7041V72.1167H2.05762V58.4204L36.9941 2.02393H54.7188V58.4204H70.3193V72.1167H54.7188V83.9819H70.3193V97.605ZM39.7041 58.4204V19.895L15.6807 58.4204H39.7041Z"/>
</mask>
<path d="M70.3193 97.605V99.605H72.3193V97.605H70.3193ZM24.3965 97.605H22.3965V99.605H24.3965V97.605ZM24.3965 83.9819V81.9819H22.3965V83.9819H24.3965ZM39.7041 83.9819V85.9819H41.7041V83.9819H39.7041ZM39.7041 72.1167H41.7041V70.1167H39.7041V72.1167ZM2.05762 72.1167H0.0576172V74.1167H2.05762V72.1167ZM2.05762 58.4204L0.357416 57.3672L0.0576172 57.8511V58.4204H2.05762ZM36.9941 2.02393V0.0239258H35.8804L35.2939 0.970684L36.9941 2.02393ZM54.7188 2.02393H56.7188V0.0239258H54.7188V2.02393ZM54.7188 58.4204H52.7188V60.4204H54.7188V58.4204ZM70.3193 58.4204H72.3193V56.4204H70.3193V58.4204ZM70.3193 72.1167V74.1167H72.3193V72.1167H70.3193ZM54.7188 72.1167V70.1167H52.7188V72.1167H54.7188ZM54.7188 83.9819H52.7188V85.9819H54.7188V83.9819ZM70.3193 83.9819H72.3193V81.9819H70.3193V83.9819ZM39.7041 58.4204V60.4204H41.7041V58.4204H39.7041ZM39.7041 19.895H41.7041V12.9079L38.007 18.8368L39.7041 19.895ZM15.6807 58.4204L13.9836 57.3622L12.0765 60.4204H15.6807V58.4204ZM70.3193 95.605H24.3965V99.605H70.3193V95.605ZM26.3965 97.605V83.9819H22.3965V97.605H26.3965ZM24.3965 85.9819H39.7041V81.9819H24.3965V85.9819ZM41.7041 83.9819V72.1167H37.7041V83.9819H41.7041ZM39.7041 70.1167H2.05762V74.1167H39.7041V70.1167ZM4.05762 72.1167V58.4204H0.0576172V72.1167H4.05762ZM3.75782 59.4736L38.6943 3.07717L35.2939 0.970684L0.357416 57.3672L3.75782 59.4736ZM36.9941 4.02393H54.7188V0.0239258H36.9941V4.02393ZM52.7188 2.02393V58.4204H56.7188V2.02393H52.7188ZM54.7188 60.4204H70.3193V56.4204H54.7188V60.4204ZM68.3193 58.4204V72.1167H72.3193V58.4204H68.3193ZM70.3193 70.1167H54.7188V74.1167H70.3193V70.1167ZM52.7188 72.1167V83.9819H56.7188V72.1167H52.7188ZM54.7188 85.9819H70.3193V81.9819H54.7188V85.9819ZM68.3193 83.9819V97.605H72.3193V83.9819H68.3193ZM41.7041 58.4204V19.895H37.7041V58.4204H41.7041ZM38.007 18.8368L13.9836 57.3622L17.3777 59.4787L41.4012 20.9533L38.007 18.8368ZM15.6807 60.4204H39.7041V56.4204H15.6807V60.4204Z" fill="#C88566" mask="url(#path-1-outside-1_9_129)"/>
</g>
</svg>
