<svg width="30" height="31" viewBox="0 0 30 31" fill="none" xmlns="http://www.w3.org/2000/svg">
<mask id="mask0_20_177" style="mask-type:alpha" maskUnits="userSpaceOnUse" x="0" y="0" width="30" height="31">
<rect y="0.651245" width="30" height="30" fill="#D9D9D9"/>
</mask>
<g mask="url(#mask0_20_177)">
<path d="M7.64437 27.5262C6.73625 27.5262 5.96427 27.2107 5.32844 26.5797C4.69281 25.9486 4.375 25.1824 4.375 24.2809L4.375 7.04562C4.375 6.1375 4.69281 5.36552 5.32844 4.72968C5.96427 4.09406 6.73625 3.77625 7.64437 3.77625L21.0097 3.77625V22.9109H7.64437C7.25813 22.9109 6.92917 23.042 6.6575 23.3041C6.38583 23.5664 6.25 23.8913 6.25 24.2791C6.25 24.6666 6.38583 24.9922 6.6575 25.2559C6.92917 25.5195 7.25813 25.6512 7.64437 25.6512H23.75V6.27625H25.625V27.5262H7.64437ZM10.8653 21.0359H19.1347V5.65125L10.8653 5.65125V21.0359ZM8.99031 21.0359V5.65125H7.64437C7.24917 5.65125 6.91802 5.78708 6.65094 6.05874C6.38365 6.33041 6.25 6.65937 6.25 7.04562L6.25 21.3987C6.46625 21.2962 6.68729 21.2101 6.91313 21.1403C7.13896 21.0707 7.38271 21.0359 7.64437 21.0359H8.99031Z" fill="#C88566"/>
</g>
</svg>
