<svg width="30" height="31" viewBox="0 0 30 31" fill="none" xmlns="http://www.w3.org/2000/svg">
<mask id="mask0_20_196" style="mask-type:alpha" maskUnits="userSpaceOnUse" x="0" y="0" width="30" height="31">
<rect y="0.953735" width="30" height="30" fill="#D9D9D9"/>
</mask>
<g mask="url(#mask0_20_196)">
<path d="M14.0625 21.8912H15.9375L15.9375 14.7037H14.0625L14.0625 21.8912ZM15 12.5644C15.286 12.5644 15.5258 12.4676 15.7194 12.274C15.9129 12.0805 16.0097 11.8407 16.0097 11.5547C16.0097 11.2686 15.9129 11.0288 15.7194 10.8353C15.5258 10.642 15.286 10.5453 15 10.5453C14.714 10.5453 14.4742 10.642 14.2806 10.8353C14.0871 11.0288 13.9903 11.2686 13.9903 11.5547C13.9903 11.8407 14.0871 12.0805 14.2806 12.274C14.4742 12.4676 14.714 12.5644 15 12.5644ZM15.0022 27.8287C13.3597 27.8287 11.8158 27.5171 10.3706 26.8937C8.92542 26.2704 7.66833 25.4245 6.59937 24.3559C5.53042 23.2874 4.68406 22.0308 4.06031 20.5862C3.43677 19.1417 3.125 17.5982 3.125 15.9559C3.125 14.3134 3.43667 12.7696 4.06 11.3244C4.68333 9.87915 5.52927 8.62207 6.59781 7.55311C7.66635 6.48415 8.92292 5.6378 10.3675 5.01405C11.8121 4.39051 13.3555 4.07874 14.9978 4.07874C16.6403 4.07874 18.1842 4.3904 19.6294 5.01373C21.0746 5.63707 22.3317 6.48301 23.4006 7.55155C24.4696 8.62009 25.3159 9.87665 25.9397 11.3212C26.5632 12.7658 26.875 14.3093 26.875 15.9515C26.875 17.594 26.5633 19.1379 25.94 20.5831C25.3167 22.0283 24.4707 23.2854 23.4022 24.3544C22.3336 25.4233 21.0771 26.2697 19.6325 26.8934C18.1879 27.517 16.6445 27.8287 15.0022 27.8287ZM15 25.9537C17.7917 25.9537 20.1562 24.985 22.0938 23.0475C24.0312 21.11 25 18.7454 25 15.9537C25 13.1621 24.0312 10.7975 22.0938 8.85999C20.1562 6.92249 17.7917 5.95374 15 5.95374C12.2083 5.95374 9.84375 6.92249 7.90625 8.85999C5.96875 10.7975 5 13.1621 5 15.9537C5 18.7454 5.96875 21.11 7.90625 23.0475C9.84375 24.985 12.2083 25.9537 15 25.9537Z" fill="#C88566"/>
</g>
</svg>
