<svg width="24" height="25" viewBox="0 0 24 25" fill="none" xmlns="http://www.w3.org/2000/svg">
<mask id="mask0_34_69" style="mask-type:alpha" maskUnits="userSpaceOnUse" x="0" y="0" width="24" height="25">
<rect y="0.60498" width="24" height="24" fill="#D9D9D9"/>
</mask>
<g mask="url(#mask0_34_69)">
<path d="M9.5655 15.7051L12 13.8551L14.3845 15.6858L13.4693 12.7281L15.9423 10.7973H12.9653L12 7.82056L11.0348 10.7973H8.05775L10.4808 12.7281L9.5655 15.7051ZM12 22.0858C9.83717 21.496 8.0465 20.2229 6.628 18.2666C5.20933 16.3102 4.5 14.1231 4.5 11.7051L4.5 5.9513L12 3.14355L19.5 5.9513V11.7051C19.5 14.1231 18.7907 16.3102 17.372 18.2666C15.9535 20.2229 14.1628 21.496 12 22.0858ZM12 20.5051C13.7333 19.9551 15.1667 18.8551 16.3 17.2051C17.4333 15.5551 18 13.7217 18 11.7051V6.98006L12 4.73956L6 6.98006V11.7051C6 13.7217 6.56667 15.5551 7.7 17.2051C8.83333 18.8551 10.2667 19.9551 12 20.5051Z" fill="#C88566"/>
</g>
</svg>
