<svg width="62" height="100" viewBox="0 0 62 100" fill="none" xmlns="http://www.w3.org/2000/svg">
<g opacity="0.2">
<mask id="path-1-outside-1_9_116" maskUnits="userSpaceOnUse" x="0" y="-0.39502" width="62" height="100" fill="black">
<rect fill="white" y="-0.39502" width="62" height="100"/>
<path d="M59.04 97.605H13.1904V83.9819H28.5713V29.6362C27.8877 32.0288 26.6914 34.1528 24.9824 36.0083C23.3223 37.8638 21.2959 39.4263 18.9033 40.6958C16.5596 41.9165 13.9229 42.8687 10.9932 43.5522C8.1123 44.187 5.13379 44.5044 2.05762 44.5044V29.3433C5.37793 29.3433 8.60059 28.8062 11.7256 27.7319C14.8994 26.6089 17.7314 24.9243 20.2217 22.6782C22.7119 20.4321 24.7139 17.6245 26.2275 14.2554C27.79 10.8374 28.5713 6.76025 28.5713 2.02393H43.7324V83.9819H59.04V97.605Z"/>
</mask>
<path d="M59.04 97.605V99.605H61.04V97.605H59.04ZM13.1904 97.605H11.1904V99.605H13.1904V97.605ZM13.1904 83.9819V81.9819H11.1904V83.9819H13.1904ZM28.5713 83.9819V85.9819H30.5713V83.9819H28.5713ZM28.5713 29.6362H30.5713L26.6482 29.0868L28.5713 29.6362ZM24.9824 36.0083L23.5113 34.6534L23.5016 34.664L23.4919 34.6747L24.9824 36.0083ZM18.9033 40.6958L19.8272 42.4696L19.834 42.4661L19.8408 42.4625L18.9033 40.6958ZM10.9932 43.5522L11.4235 45.5054L11.4356 45.5027L11.4476 45.4999L10.9932 43.5522ZM2.05762 44.5044H0.0576172V46.5044H2.05762V44.5044ZM2.05762 29.3433V27.3433H0.0576172V29.3433H2.05762ZM11.7256 27.7319L12.3757 29.6233L12.3843 29.6204L12.3927 29.6174L11.7256 27.7319ZM26.2275 14.2554L24.4086 13.4238L24.4032 13.4357L26.2275 14.2554ZM28.5713 2.02393V0.0239258H26.5713V2.02393H28.5713ZM43.7324 2.02393H45.7324V0.0239258H43.7324V2.02393ZM43.7324 83.9819H41.7324V85.9819H43.7324V83.9819ZM59.04 83.9819H61.04V81.9819H59.04V83.9819ZM59.04 95.605H13.1904V99.605H59.04V95.605ZM15.1904 97.605V83.9819H11.1904V97.605H15.1904ZM13.1904 85.9819H28.5713V81.9819H13.1904V85.9819ZM30.5713 83.9819V29.6362H26.5713V83.9819H30.5713ZM26.6482 29.0868C26.0516 31.175 25.0119 33.0242 23.5113 34.6534L26.4535 37.3633C28.3709 35.2815 29.7238 32.8826 30.4943 30.1857L26.6482 29.0868ZM23.4919 34.6747C22.0024 36.3395 20.1684 37.7604 17.9659 38.9291L19.8408 42.4625C22.4234 41.0921 24.6421 39.3881 26.4729 37.3419L23.4919 34.6747ZM17.9795 38.922C15.8031 40.0555 13.3273 40.9539 10.5387 41.6046L11.4476 45.4999C14.5184 44.7834 17.316 43.7775 19.8272 42.4696L17.9795 38.922ZM10.5628 41.5991C7.82919 42.2014 4.99524 42.5044 2.05762 42.5044V46.5044C5.27233 46.5044 8.39542 46.1726 11.4235 45.5054L10.5628 41.5991ZM4.05762 44.5044V29.3433H0.0576172V44.5044H4.05762ZM2.05762 31.3433C5.59808 31.3433 9.04051 30.7698 12.3757 29.6233L11.0754 25.8406C8.16067 26.8425 5.15777 27.3433 2.05762 27.3433V31.3433ZM12.3927 29.6174C15.8139 28.4068 18.8746 26.5866 21.5612 24.1634L18.8821 21.1931C16.5883 23.2621 13.985 24.8109 11.0584 25.8465L12.3927 29.6174ZM21.5612 24.1634C24.2775 21.7134 26.4361 18.6714 28.0519 15.075L24.4032 13.4357C22.9916 16.5777 21.1463 19.1509 18.8821 21.1931L21.5612 24.1634ZM28.0465 15.0869C29.7551 11.3493 30.5713 6.97486 30.5713 2.02393H26.5713C26.5713 6.54564 25.825 10.3255 24.4086 13.4239L28.0465 15.0869ZM28.5713 4.02393H43.7324V0.0239258H28.5713V4.02393ZM41.7324 2.02393V83.9819H45.7324V2.02393H41.7324ZM43.7324 85.9819H59.04V81.9819H43.7324V85.9819ZM57.04 83.9819V97.605H61.04V83.9819H57.04Z" fill="#C88566" mask="url(#path-1-outside-1_9_116)"/>
</g>
</svg>
