<svg width="24" height="25" viewBox="0 0 24 25" fill="none" xmlns="http://www.w3.org/2000/svg">
<mask id="mask0_34_79" style="mask-type:alpha" maskUnits="userSpaceOnUse" x="0" y="0" width="24" height="25">
<rect y="0.60498" width="24" height="24" fill="#D9D9D9"/>
</mask>
<g mask="url(#mask0_34_79)">
<path d="M16 11.4895C16.2448 11.4895 16.4535 11.4033 16.626 11.231C16.7983 11.0585 16.8845 10.8498 16.8845 10.605C16.8845 10.3601 16.7983 10.1515 16.626 9.97898C16.4535 9.80665 16.2448 9.72048 16 9.72048C15.7552 9.72048 15.5465 9.80665 15.374 9.97898C15.2017 10.1515 15.1155 10.3601 15.1155 10.605C15.1155 10.8498 15.2017 11.0585 15.374 11.231C15.5465 11.4033 15.7552 11.4895 16 11.4895ZM8 9.35498H13V7.85498L8 7.85498V9.35498ZM4.875 21.105C4.34683 19.2818 3.819 17.4677 3.2915 15.6627C2.76383 13.8576 2.5 12.005 2.5 10.105C2.5 8.71265 2.98525 7.53123 3.95575 6.56073C4.92625 5.59023 6.10767 5.10498 7.5 5.10498L12.75 5.10498C13.2077 4.50365 13.7568 4.01998 14.3973 3.65398C15.0376 3.28798 15.7385 3.10498 16.5 3.10498C16.7757 3.10498 17.0113 3.20273 17.2068 3.39823C17.4023 3.59373 17.5 3.82931 17.5 4.10498C17.5 4.17298 17.4907 4.2409 17.472 4.30873C17.4535 4.37673 17.434 4.43956 17.4135 4.49723C17.3212 4.73823 17.2426 4.98506 17.1777 5.23773C17.1131 5.49023 17.0577 5.74531 17.0115 6.00298L19.6135 8.60498H21.5V14.7145L18.771 15.6107L17.125 21.105H12.5V19.105H9.5V21.105H4.875ZM6 19.605H8V17.605H14L14 19.605H16L17.55 14.455L20 13.63V10.105H19L15.5 6.60498C15.5 6.27165 15.5208 5.95081 15.5625 5.64248C15.6042 5.33415 15.6731 5.02481 15.7693 4.71448C15.2859 4.84781 14.8641 5.08023 14.5038 5.41173C14.1436 5.74306 13.8673 6.14081 13.675 6.60498L7.5 6.60498C6.53333 6.60498 5.70833 6.94665 5.025 7.62998C4.34167 8.31331 4 9.13831 4 10.105C4 11.7383 4.225 13.3341 4.675 14.8925C5.125 16.4508 5.56667 18.0216 6 19.605Z" fill="#C88566"/>
</g>
</svg>
