<svg width="71" height="104" viewBox="0 0 71 104" fill="none" xmlns="http://www.w3.org/2000/svg">
<g opacity="0.2">
<mask id="path-1-outside-1_9_125" maskUnits="userSpaceOnUse" x="0" y="-0.39502" width="71" height="104" fill="black">
<rect fill="white" y="-0.39502" width="71" height="104"/>
<path d="M68.4404 73.6772C68.4404 77.8765 67.5859 81.6851 65.877 85.103C64.168 88.4722 61.873 91.353 58.9922 93.7456C56.1602 96.1382 52.8643 97.9937 49.1045 99.312C45.3936 100.63 41.4873 101.29 37.3857 101.29C32.7471 101.29 28.4258 100.655 24.4219 99.3853C20.4668 98.1157 16.9512 96.2114 13.875 93.6724C10.8477 91.1333 8.38184 87.8618 6.47754 83.8579C4.57324 79.854 3.42578 75.0933 3.03516 69.5757L17.2441 67.2319C17.7324 73.5308 19.7832 78.5112 23.3965 82.1733C27.0098 85.7866 31.6729 87.5933 37.3857 87.5933C42.1709 87.5933 46.0039 86.3237 48.8848 83.7847C51.8145 81.2456 53.2793 77.8765 53.2793 73.6772C53.2793 67.9644 51.4238 63.8872 47.7129 61.4458C44.002 59.0044 37.5078 57.7837 28.2305 57.7837V44.0874C31.502 44.0874 34.5293 43.77 37.3125 43.1353C40.1445 42.5005 42.6104 41.5483 44.71 40.2788C46.8096 39.0093 48.4453 37.4956 49.6172 35.7378C50.8379 33.9312 51.4482 31.8315 51.4482 29.439C51.4482 25.4351 50.252 22.2124 47.8594 19.771C45.4668 17.2808 41.9756 16.0356 37.3857 16.0356C31.3799 16.0356 26.7656 17.6714 23.543 20.9429C20.3691 24.1655 18.7822 29.3413 18.7822 36.4702H4.35352C4.35352 30.855 5.15918 25.9233 6.77051 21.6753C8.38184 17.4272 10.6279 13.8872 13.5088 11.0552C16.3896 8.17432 19.8564 6.02588 23.9092 4.60986C27.9619 3.14502 32.4541 2.4126 37.3857 2.4126C41.4873 2.4126 45.2959 3.04736 48.8115 4.31689C52.376 5.5376 55.4766 7.31982 58.1133 9.66357C60.7988 12.0073 62.874 14.8394 64.3389 18.1597C65.8525 21.48 66.6094 25.2397 66.6094 29.439C66.6094 32.1245 66.1699 34.6636 65.291 37.0562C64.4609 39.4487 63.2402 41.5728 61.6289 43.4282C60.0664 45.2837 58.0889 46.7974 55.6963 47.9692C53.3525 49.0923 50.7402 49.7515 47.8594 49.9468C51.1797 50.2397 54.1094 51.0942 56.6484 52.5103C59.1875 53.9263 61.3359 55.7085 63.0938 57.8569C64.8516 60.0054 66.1699 62.4468 67.0488 65.1812C67.9766 67.9155 68.4404 70.7476 68.4404 73.6772Z"/>
</mask>
<path d="M65.877 85.103L67.6606 86.0078L67.6658 85.9975L65.877 85.103ZM58.9922 93.7456L57.7144 92.207L57.7079 92.2124L57.7015 92.2178L58.9922 93.7456ZM49.1045 99.312L48.4427 97.4247L48.435 97.4274L49.1045 99.312ZM24.4219 99.3853L23.8106 101.29L23.8174 101.292L24.4219 99.3853ZM13.875 93.6724L12.5898 95.2048L12.5958 95.2098L12.6019 95.2148L13.875 93.6724ZM3.03516 69.5757L2.70966 67.6023L0.911444 67.899L1.04015 69.7169L3.03516 69.5757ZM17.2441 67.2319L19.2382 67.0774L19.0697 64.9038L16.9186 65.2586L17.2441 67.2319ZM23.3965 82.1733L21.9728 83.5781L21.9823 83.5876L23.3965 82.1733ZM48.8848 83.7847L47.5749 82.2733L47.5686 82.2787L47.5624 82.2842L48.8848 83.7847ZM28.2305 57.7837H26.2305V59.7837H28.2305V57.7837ZM28.2305 44.0874V42.0874H26.2305V44.0874H28.2305ZM37.3125 43.1353L36.8751 41.1837L36.8678 41.1853L37.3125 43.1353ZM49.6172 35.7378L47.96 34.6181L47.9531 34.6284L49.6172 35.7378ZM47.8594 19.771L46.4172 21.1566L46.424 21.1638L46.431 21.1709L47.8594 19.771ZM23.543 20.9429L22.1182 19.5393L22.118 19.5395L23.543 20.9429ZM18.7822 36.4702V38.4702H20.7822V36.4702H18.7822ZM4.35352 36.4702H2.35352V38.4702H4.35352V36.4702ZM13.5088 11.0552L14.9109 12.4814L14.917 12.4754L14.923 12.4694L13.5088 11.0552ZM23.9092 4.60986L24.5689 6.49793L24.579 6.49441L24.589 6.49077L23.9092 4.60986ZM48.8115 4.31689L48.1322 6.198L48.1478 6.20364L48.1635 6.20901L48.8115 4.31689ZM58.1133 9.66357L56.7846 11.1584L56.7914 11.1644L56.7982 11.1704L58.1133 9.66357ZM64.3389 18.1597L62.509 18.9669L62.514 18.9781L62.5191 18.9893L64.3389 18.1597ZM65.291 37.0562L63.4137 36.3665L63.4074 36.3835L63.4015 36.4006L65.291 37.0562ZM61.6289 43.4282L60.1188 42.1169L60.1089 42.1283L60.0991 42.14L61.6289 43.4282ZM55.6963 47.9692L56.5605 49.7729L56.5683 49.7691L56.576 49.7654L55.6963 47.9692ZM47.8594 49.9468L47.7241 47.9514L47.6836 51.939L47.8594 49.9468ZM67.0488 65.1812L65.1448 65.7932L65.1497 65.8085L65.1549 65.8237L67.0488 65.1812ZM66.4404 73.6772C66.4404 77.5972 65.6449 81.0949 64.0881 84.2086L67.6658 85.9975C69.527 82.2752 70.4404 78.1558 70.4404 73.6772H66.4404ZM64.0933 84.1983C62.5068 87.326 60.3832 89.9905 57.7144 92.207L60.27 95.2842C63.3629 92.7155 65.8292 89.6183 67.6606 86.0078L64.0933 84.1983ZM57.7015 92.2178C55.0689 94.4419 51.99 96.1808 48.4427 97.4247L49.7663 101.199C53.7386 99.8065 57.2514 97.8345 60.2829 95.2734L57.7015 92.2178ZM48.435 97.4274C44.9478 98.6663 41.2688 99.2896 37.3857 99.2896V103.29C41.7059 103.29 45.8393 102.594 49.774 101.197L48.435 97.4274ZM37.3857 99.2896C32.931 99.2896 28.8155 98.6802 25.0264 97.4788L23.8174 101.292C28.036 102.629 32.5632 103.29 37.3857 103.29V99.2896ZM25.0331 97.4809C21.3095 96.2857 18.0206 94.5008 15.1481 92.1299L12.6019 95.2148C15.8818 97.922 19.6241 99.9457 23.8106 101.29L25.0331 97.4809ZM15.1602 92.14C12.3783 89.8067 10.0798 86.7753 8.28367 82.9989L4.67141 84.7169C6.68389 88.9483 9.31703 92.4599 12.5898 95.2048L15.1602 92.14ZM8.28367 82.9989C6.50947 79.2685 5.40737 74.7625 5.03016 69.4344L1.04015 69.7169C1.44419 75.424 2.63702 80.4395 4.67141 84.7169L8.28367 82.9989ZM3.36065 71.549L17.5696 69.2053L16.9186 65.2586L2.70966 67.6023L3.36065 71.549ZM15.2501 67.3865C15.7663 74.045 17.957 79.5079 21.9728 83.578L24.8202 80.7686C21.6095 77.5146 19.6986 73.0165 19.2382 67.0774L15.2501 67.3865ZM21.9823 83.5876C26.0164 87.6217 31.2109 89.5933 37.3857 89.5933V85.5933C32.1348 85.5933 28.0031 83.9516 24.8107 80.7591L21.9823 83.5876ZM37.3857 89.5933C42.5335 89.5933 46.8774 88.2198 50.2072 85.2851L47.5624 82.2842C45.1304 84.4277 41.8083 85.5933 37.3857 85.5933V89.5933ZM50.1946 85.296C53.6022 82.3428 55.2793 78.402 55.2793 73.6772H51.2793C51.2793 77.3509 50.0267 80.1484 47.5749 82.2733L50.1946 85.296ZM55.2793 73.6772C55.2793 67.508 53.245 62.6914 48.8121 59.775L46.6137 63.1166C49.6026 65.0831 51.2793 68.4207 51.2793 73.6772H55.2793ZM48.8121 59.775C44.5736 56.9865 37.555 55.7837 28.2305 55.7837V59.7837C37.4606 59.7837 43.4303 61.0223 46.6137 63.1166L48.8121 59.775ZM30.2305 57.7837V44.0874H26.2305V57.7837H30.2305ZM28.2305 46.0874C31.6303 46.0874 34.8088 45.7576 37.7572 45.0852L36.8678 41.1853C34.2498 41.7824 31.3736 42.0874 28.2305 42.0874V46.0874ZM37.7499 45.0868C40.7552 44.4132 43.4301 43.3899 45.7448 41.9903L43.6751 38.5673C41.7906 39.7068 39.5338 40.5877 36.8751 41.1837L37.7499 45.0868ZM45.7448 41.9903C48.0555 40.5931 49.9221 38.8859 51.2813 36.8472L47.9531 34.6284C46.9685 36.1053 45.5637 37.4254 43.6751 38.5673L45.7448 41.9903ZM51.2744 36.8575C52.7402 34.6881 53.4482 32.1901 53.4482 29.439H49.4482C49.4482 31.473 48.9356 33.1742 47.96 34.6181L51.2744 36.8575ZM53.4482 29.439C53.4482 25.008 52.1091 21.25 49.2878 18.3711L46.431 21.1709C48.3948 23.1748 49.4482 25.8621 49.4482 29.439H53.4482ZM49.3016 18.3853C46.4198 15.3859 42.3335 14.0356 37.3857 14.0356V18.0356C41.6177 18.0356 44.5138 19.1756 46.4172 21.1566L49.3016 18.3853ZM37.3857 14.0356C31.0162 14.0356 25.8223 15.7791 22.1182 19.5393L24.9678 22.3464C27.709 19.5637 31.7436 18.0356 37.3857 18.0356V14.0356ZM22.118 19.5395C18.4118 23.3028 16.7822 29.1085 16.7822 36.4702H20.7822C20.7822 29.5741 22.3265 25.0283 24.9679 22.3462L22.118 19.5395ZM18.7822 34.4702H4.35352V38.4702H18.7822V34.4702ZM6.35352 36.4702C6.35352 31.0422 7.13274 26.3596 8.6405 22.3846L4.90051 20.966C3.18562 25.4871 2.35352 30.6678 2.35352 36.4702H6.35352ZM8.6405 22.3846C10.1622 18.3727 12.2602 15.0872 14.9109 12.4814L12.1067 9.62893C8.99567 12.6872 6.60143 16.4818 4.90051 20.966L8.6405 22.3846ZM14.923 12.4694C17.5798 9.81261 20.7844 7.8202 24.5689 6.49793L23.2495 2.72179C18.9285 4.23155 15.1995 6.53602 12.0946 9.64096L14.923 12.4694ZM24.589 6.49077C28.3947 5.11521 32.6529 4.4126 37.3857 4.4126V0.412598C32.2553 0.412598 27.5291 1.17483 23.2293 2.72896L24.589 6.49077ZM37.3857 4.4126C41.2782 4.4126 44.8546 5.01443 48.1322 6.198L49.4908 2.43579C45.7372 1.0803 41.6964 0.412598 37.3857 0.412598V4.4126ZM48.1635 6.20901C51.4943 7.34967 54.3594 9.00267 56.7846 11.1584L59.442 8.16876C56.5938 5.63698 53.2577 3.72552 49.4595 2.42478L48.1635 6.20901ZM56.7982 11.1704C59.2589 13.3179 61.1602 15.9097 62.509 18.9669L66.1687 17.3524C64.5878 13.769 62.3388 10.6967 59.4283 8.15672L56.7982 11.1704ZM62.5191 18.9893C63.8974 22.0127 64.6094 25.483 64.6094 29.439H68.6094C68.6094 24.9965 67.8077 20.9473 66.1587 17.33L62.5191 18.9893ZM64.6094 29.439C64.6094 31.9019 64.2072 34.2065 63.4137 36.3665L67.1684 37.7458C68.1327 35.1207 68.6094 32.3471 68.6094 29.439H64.6094ZM63.4015 36.4006C62.6524 38.5599 61.5579 40.4597 60.1188 42.1169L63.139 44.7396C64.9225 42.6858 66.2695 40.3376 67.1805 37.7117L63.4015 36.4006ZM60.0991 42.14C58.7326 43.7627 56.9842 45.1114 54.8166 46.1731L56.576 49.7654C59.1935 48.4833 61.4003 46.8047 63.1587 44.7165L60.0991 42.14ZM54.8321 46.1656C52.741 47.1676 50.3801 47.7713 47.7241 47.9514L47.9947 51.9422C51.1004 51.7316 53.9641 51.017 56.5605 49.7729L54.8321 46.1656ZM47.6836 51.939C50.7644 52.2109 53.4146 52.9968 55.6743 54.257L57.6226 50.7635C54.8041 49.1917 51.595 48.2686 48.0352 47.9545L47.6836 51.939ZM55.6743 54.257C58.0041 55.5563 59.9548 57.1789 61.5458 59.1234L64.6417 56.5905C62.717 54.2381 60.3709 52.2962 57.6226 50.7635L55.6743 54.257ZM61.5458 59.1234C63.1395 61.0712 64.3398 63.2889 65.1448 65.7932L68.9529 64.5691C68 61.6046 66.5636 58.9395 64.6417 56.5905L61.5458 59.1234ZM65.1549 65.8237C66.0114 68.3481 66.4404 70.9629 66.4404 73.6772H70.4404C70.4404 70.5323 69.9418 67.483 68.9428 64.5386L65.1549 65.8237Z" fill="#C88566" mask="url(#path-1-outside-1_9_125)"/>
</g>
</svg>
