<svg width="70" height="102" viewBox="0 0 70 102" fill="none" xmlns="http://www.w3.org/2000/svg">
<g opacity="0.2">
<mask id="path-1-outside-1_9_121" maskUnits="userSpaceOnUse" x="0" y="-0.39502" width="70" height="102" fill="black">
<rect fill="white" y="-0.39502" width="70" height="102"/>
<path d="M67.3418 30.1714C67.3418 34.6636 66.1455 39.2534 63.7529 43.9409C61.3604 48.6284 58.0645 53.0718 53.8652 57.271L23.9824 85.9819H52.0342V72.8716H65.7305V99.605H4.20703V85.3228L42.7324 48.4819C46.0527 45.064 48.4453 41.8657 49.9102 38.8872C51.4238 35.8599 52.1807 32.9546 52.1807 30.1714C52.1807 27.6812 51.6924 25.5327 50.7158 23.7261C49.7881 21.9194 48.5674 20.4546 47.0537 19.3315C45.5889 18.1597 43.9043 17.3296 42 16.8413C40.0957 16.3042 38.1914 16.0356 36.2871 16.0356C30.2812 16.0356 25.5449 17.7935 22.0781 21.3091C18.6602 24.8247 16.9512 30.0249 16.9512 36.9097H2.74219C2.74219 26.1187 5.59863 17.6714 11.3115 11.5679C17.0732 5.46436 25.3984 2.4126 36.2871 2.4126C40.3887 2.4126 44.3193 3.02295 48.0791 4.24365C51.8389 5.41553 55.1348 7.14893 57.9668 9.44385C60.8477 11.7388 63.1182 14.644 64.7783 18.1597C66.4873 21.6753 67.3418 25.6792 67.3418 30.1714Z"/>
</mask>
<path d="M53.8652 57.271L55.2509 58.7132L55.2653 58.6993L55.2794 58.6852L53.8652 57.271ZM23.9824 85.9819L22.5968 84.5397L19.0141 87.9819H23.9824V85.9819ZM52.0342 85.9819V87.9819H54.0342V85.9819H52.0342ZM52.0342 72.8716V70.8716H50.0342V72.8716H52.0342ZM65.7305 72.8716H67.7305V70.8716H65.7305V72.8716ZM65.7305 99.605V101.605H67.7305V99.605H65.7305ZM4.20703 99.605H2.20703V101.605H4.20703V99.605ZM4.20703 85.3228L2.82477 83.8773L2.20703 84.468V85.3228H4.20703ZM42.7324 48.4819L44.1147 49.9274L44.1413 49.9019L44.167 49.8755L42.7324 48.4819ZM49.9102 38.8872L48.1213 37.9928L48.1155 38.0046L49.9102 38.8872ZM50.7158 23.7261L48.9367 24.6397L48.9464 24.6585L48.9564 24.6771L50.7158 23.7261ZM47.0537 19.3315L45.8043 20.8933L45.8328 20.916L45.862 20.9377L47.0537 19.3315ZM42 16.8413L41.4571 18.7662L41.4801 18.7727L41.5033 18.7786L42 16.8413ZM22.0781 21.3091L20.6541 19.9048L20.6491 19.9098L20.6441 19.9149L22.0781 21.3091ZM16.9512 36.9097V38.9097H18.9512V36.9097H16.9512ZM2.74219 36.9097H0.742188V38.9097H2.74219V36.9097ZM11.3115 11.5679L9.85716 10.195L9.85136 10.2012L11.3115 11.5679ZM48.0791 4.24365L47.4615 6.1459L47.4727 6.14954L47.484 6.15305L48.0791 4.24365ZM57.9668 9.44385L56.7076 10.9977L56.7141 11.003L56.7206 11.0082L57.9668 9.44385ZM64.7783 18.1597L62.9698 19.0137L62.9746 19.0239L62.9796 19.0341L64.7783 18.1597ZM65.3418 30.1714C65.3418 34.2974 64.245 38.5775 61.9716 43.0317L65.5343 44.8502C68.046 39.9293 69.3418 35.0297 69.3418 30.1714H65.3418ZM61.9716 43.0317C59.6855 47.5104 56.5209 51.7869 52.451 55.8568L55.2794 58.6852C59.608 54.3567 63.0352 49.7464 65.5343 44.8502L61.9716 43.0317ZM52.4796 55.8288L22.5968 84.5397L25.3681 87.4241L55.2509 58.7132L52.4796 55.8288ZM23.9824 87.9819H52.0342V83.9819H23.9824V87.9819ZM54.0342 85.9819V72.8716H50.0342V85.9819H54.0342ZM52.0342 74.8716H65.7305V70.8716H52.0342V74.8716ZM63.7305 72.8716V99.605H67.7305V72.8716H63.7305ZM65.7305 97.605H4.20703V101.605H65.7305V97.605ZM6.20703 99.605V85.3228H2.20703V99.605H6.20703ZM5.58929 86.7682L44.1147 49.9274L41.3502 47.0365L2.82477 83.8773L5.58929 86.7682ZM44.167 49.8755C47.5754 46.3668 50.1168 42.9989 51.7049 39.7698L48.1155 38.0046C46.7738 40.7325 44.5301 43.7611 41.2979 47.0884L44.167 49.8755ZM51.699 39.7816C53.322 36.5357 54.1807 33.3251 54.1807 30.1714H50.1807C50.1807 32.5841 49.5257 35.184 48.1213 37.9928L51.699 39.7816ZM54.1807 30.1714C54.1807 27.4191 53.64 24.9298 52.4752 22.775L48.9564 24.6771C49.7448 26.1357 50.1807 27.9432 50.1807 30.1714H54.1807ZM52.495 22.8125C51.4382 20.7546 50.0242 19.0451 48.2454 17.7253L45.862 20.9377C47.1106 21.8641 48.138 23.0843 48.9367 24.6397L52.495 22.8125ZM48.3031 17.7698C46.6062 16.4123 44.6622 15.4592 42.4967 14.904L41.5033 18.7786C43.1463 19.1999 44.5715 19.907 45.8043 20.8933L48.3031 17.7698ZM42.5429 14.9164C40.4689 14.3314 38.382 14.0356 36.2871 14.0356V18.0356C38.0008 18.0356 39.7225 18.277 41.4571 18.7662L42.5429 14.9164ZM36.2871 14.0356C29.8697 14.0356 24.5755 15.9281 20.6541 19.9048L23.5022 22.7134C26.5144 19.6588 30.6928 18.0356 36.2871 18.0356V14.0356ZM20.6441 19.9149C16.7381 23.9326 14.9512 29.7166 14.9512 36.9097H18.9512C18.9512 30.3332 20.5822 25.7168 23.5121 22.7032L20.6441 19.9149ZM16.9512 34.9097H2.74219V38.9097H16.9512V34.9097ZM4.74219 36.9097C4.74219 26.4735 7.49754 18.5694 12.7717 12.9346L9.85136 10.2012C3.69973 16.7734 0.742188 25.7638 0.742188 36.9097H4.74219ZM12.7659 12.9408C18.0459 7.34755 25.7766 4.4126 36.2871 4.4126V0.412598C25.0203 0.412598 16.1006 3.58116 9.85717 10.195L12.7659 12.9408ZM36.2871 4.4126C40.1869 4.4126 43.9086 4.99237 47.4615 6.1459L48.6967 2.3414C44.73 1.05352 40.5904 0.412598 36.2871 0.412598V4.4126ZM47.484 6.15305C51.0214 7.25564 54.0878 8.87471 56.7076 10.9977L59.226 7.88998C56.1818 5.42314 52.6563 3.57541 48.6742 2.33425L47.484 6.15305ZM56.7206 11.0082C59.3489 13.1019 61.4329 15.7589 62.9698 19.0137L66.5868 17.3057C64.8035 13.5291 62.3464 10.3757 59.213 7.87953L56.7206 11.0082ZM62.9796 19.0341C64.5377 22.2393 65.3418 25.9369 65.3418 30.1714H69.3418C69.3418 25.4215 68.4369 21.1113 66.5771 17.2853L62.9796 19.0341Z" fill="#C88566" mask="url(#path-1-outside-1_9_121)"/>
</g>
</svg>
