<svg width="30" height="31" viewBox="0 0 30 31" fill="none" xmlns="http://www.w3.org/2000/svg">
<mask id="mask0_20_190" style="mask-type:alpha" maskUnits="userSpaceOnUse" x="0" y="0" width="30" height="31">
<rect y="0.953735" width="30" height="30" fill="#D9D9D9"/>
</mask>
<g mask="url(#mask0_20_190)">
<path d="M13.6875 19.9584L20.3172 13.3287L18.9806 11.9921L13.6875 17.2856L11.0384 14.6365L9.70187 15.9731L13.6875 19.9584ZM15 27.8046C12.2965 27.0674 10.0581 25.476 8.285 23.0306C6.51167 20.5852 5.625 17.8512 5.625 14.8287L5.625 7.63652L15 4.12683L24.375 7.63652V14.8287C24.375 17.8512 23.4883 20.5852 21.715 23.0306C19.9419 25.476 17.7035 27.0674 15 27.8046ZM15 25.8287C17.1667 25.1412 18.9583 23.7662 20.375 21.7037C21.7917 19.6412 22.5 17.3495 22.5 14.8287V8.92246L15 6.12183L7.5 8.92246L7.5 14.8287C7.5 17.3495 8.20833 19.6412 9.625 21.7037C11.0417 23.7662 12.8333 25.1412 15 25.8287Z" fill="#C88566"/>
</g>
</svg>
