<svg width="95" height="30" viewBox="0 0 95 30" fill="none" xmlns="http://www.w3.org/2000/svg">
<path d="M13.3691 25H1.15234V5.88379H4.18457V22.2754H13.3691V25ZM28.1787 25L26.8018 20.4443H20.4736L19.126 25H15.9473L21.9092 5.88379H25.3955L31.3574 25H28.1787ZM21.2793 17.7637H25.9961L23.6523 9.88281L21.2793 17.7637ZM47.7637 5.88379L44.8047 25H41.6846L40 16.7529L38.3447 25H35.2246L32.2656 5.88379H35.415L37.1729 18.7598L38.5645 11.3477H41.4648L42.8125 18.7598L44.6143 5.88379H47.7637Z" fill="white"/>
<path d="M73.4902 25L72.1133 20.4443H65.7852L64.4375 25H61.2588L67.2207 5.88379H70.707L76.6689 25H73.4902ZM66.5908 17.7637H71.3076L68.9639 9.88281L66.5908 17.7637ZM89.9551 25H80.7852V22.2754H83.8027V8.62305H80.7852V5.88379H89.9551V8.62305H86.835V22.2754H89.9551V25Z" fill="#C88566"/>
</svg>
